# xmcd CD database file
#
# Track frame offsets:
#	150
#	15599
#	29935
#	44539
#	64879
#	79535
#	91466
#	109988
#	124230
#	137675
#	150934
#	162951
#	177990
#	192229
#	205915
#	219162
#	233460
#	246072
#	260055
#	273256
#	286059
#	299239
#	313743
#	327021
#
# Disc length: 4541 seconds
#
# Revision: 0
# Processed by: cddbd v1.5PL0 Copyright (c) Steve Scherf et al.
# Submitted via: CDex 1.51
#
DISCID=6011bb18
DTITLE=Ella Fitzgerald - The Legendary, Vol. 2 [Compilation]
DYEAR=1900
DGENRE=Jazz
TTITLE0=I Got a Simple Melody
TTITLE1=Holiday in Harlem
TTITLE2=Rock It for Me
TTITLE3=I Want to be Happy
TTITLE4=The Dipsy Doodle
TTITLE5=If Dreams Come True
TTITLE6=Hallelujah
TTITLE7=Bei Mir Bis Su Schoen
TTITLE8=It's Wonderful
TTITLE9=I was Doing All Right
TTITLE10=A-Tisket, A-Tasket
TTITLE11=I'm Just a Jitterbug
TTITLE12=This Time it's Real
TTITLE13=We Can't Go on this Way
TTITLE14=Pack Up Your Sins and Go to the Devil
TTITLE15=Macpherson is Rehearsin' (To Swing)
TTITLE16=Ella
TTITLE17=Wacky Dust
TTITLE18=Gotta a Pebble in My Shoe
TTITLE19=Strictly from Dixie
TTITLE20=Woe is Me
TTITLE21=I Let a Tear Fall in the River
TTITLE22=F.D.R. Jones
TTITLE23=I Love Each Move You Make
EXTD=
EXTT0=
EXTT1=
EXTT2=
EXTT3=
EXTT4=
EXTT5=
EXTT6=
EXTT7=
EXTT8=
EXTT9=
EXTT10=
EXTT11=
EXTT12=
EXTT13=
EXTT14=
EXTT15=
EXTT16=
EXTT17=
EXTT18=
EXTT19=
EXTT20=
EXTT21=
EXTT22=
EXTT23=
PLAYORDER=
